<svg id="visual" viewBox="0 0 900 600" width="900" height="600" xmlns="http://www.w3.org/2000/svg" xmlns:xlink="http://www.w3.org/1999/xlink" version="1.1"><rect x="0" y="0" width="900" height="600" fill="#4FACF7"></rect><path d="M0 439L129 413L257 442L386 422L514 354L643 390L771 392L900 417L900 601L771 601L643 601L514 601L386 601L257 601L129 601L0 601Z" fill="#009473"></path><path d="M0 455L129 446L257 409L386 456L514 415L643 440L771 463L900 467L900 601L771 601L643 601L514 601L386 601L257 601L129 601L0 601Z" fill="#007274"></path><path d="M0 488L129 497L257 492L386 456L514 464L643 482L771 466L900 475L900 601L771 601L643 601L514 601L386 601L257 601L129 601L0 601Z" fill="#005060"></path><path d="M0 515L129 502L257 509L386 507L514 536L643 540L771 484L900 517L900 601L771 601L643 601L514 601L386 601L257 601L129 601L0 601Z" fill="#022f42"></path><path d="M0 572L129 542L257 540L386 547L514 572L643 562L771 539L900 539L900 601L771 601L643 601L514 601L386 601L257 601L129 601L0 601Z" fill="#001122"></path></svg>