<svg id="visual" viewBox="0 0 1920 1080" width="1920" height="1080" xmlns="http://www.w3.org/2000/svg" xmlns:xlink="http://www.w3.org/1999/xlink" version="1.1"><rect x="0" y="0" width="1920" height="1080" fill="#00599d"></rect><path d="M0 787L29.2 784.3C58.3 781.7 116.7 776.3 174.8 763C233 749.7 291 728.3 349.2 722.7C407.3 717 465.7 727 523.8 727.7C582 728.3 640 719.7 698.2 717C756.3 714.3 814.7 717.7 872.8 736.7C931 755.7 989 790.3 1047.2 794.8C1105.3 799.3 1163.7 773.7 1221.8 771.5C1280 769.3 1338 790.7 1396.2 800C1454.3 809.3 1512.7 806.7 1570.8 810.3C1629 814 1687 824 1745.2 808.2C1803.3 792.3 1861.7 750.7 1890.8 729.8L1920 709L1920 1081L1890.8 1081C1861.7 1081 1803.3 1081 1745.2 1081C1687 1081 1629 1081 1570.8 1081C1512.7 1081 1454.3 1081 1396.2 1081C1338 1081 1280 1081 1221.8 1081C1163.7 1081 1105.3 1081 1047.2 1081C989 1081 931 1081 872.8 1081C814.7 1081 756.3 1081 698.2 1081C640 1081 582 1081 523.8 1081C465.7 1081 407.3 1081 349.2 1081C291 1081 233 1081 174.8 1081C116.7 1081 58.3 1081 29.2 1081L0 1081Z" fill="#fcaf3c"></path><path d="M0 818L29.2 811C58.3 804 116.7 790 174.8 791.8C233 793.7 291 811.3 349.2 815.7C407.3 820 465.7 811 523.8 807.3C582 803.7 640 805.3 698.2 803.5C756.3 801.7 814.7 796.3 872.8 799.2C931 802 989 813 1047.2 825.8C1105.3 838.7 1163.7 853.3 1221.8 843.7C1280 834 1338 800 1396.2 789C1454.3 778 1512.7 790 1570.8 789.2C1629 788.3 1687 774.7 1745.2 786.5C1803.3 798.3 1861.7 835.7 1890.8 854.3L1920 873L1920 1081L1890.8 1081C1861.7 1081 1803.3 1081 1745.2 1081C1687 1081 1629 1081 1570.8 1081C1512.7 1081 1454.3 1081 1396.2 1081C1338 1081 1280 1081 1221.8 1081C1163.7 1081 1105.3 1081 1047.2 1081C989 1081 931 1081 872.8 1081C814.7 1081 756.3 1081 698.2 1081C640 1081 582 1081 523.8 1081C465.7 1081 407.3 1081 349.2 1081C291 1081 233 1081 174.8 1081C116.7 1081 58.3 1081 29.2 1081L0 1081Z" fill="#fba432"></path><path d="M0 911L29.2 906.8C58.3 902.7 116.7 894.3 174.8 887.2C233 880 291 874 349.2 871.2C407.3 868.3 465.7 868.7 523.8 874.8C582 881 640 893 698.2 889.8C756.3 886.7 814.7 868.3 872.8 853.8C931 839.3 989 828.7 1047.2 826.7C1105.3 824.7 1163.7 831.3 1221.8 832C1280 832.7 1338 827.3 1396.2 828C1454.3 828.7 1512.7 835.3 1570.8 852.7C1629 870 1687 898 1745.2 897.8C1803.3 897.7 1861.7 869.3 1890.8 855.2L1920 841L1920 1081L1890.8 1081C1861.7 1081 1803.3 1081 1745.2 1081C1687 1081 1629 1081 1570.8 1081C1512.7 1081 1454.3 1081 1396.2 1081C1338 1081 1280 1081 1221.8 1081C1163.7 1081 1105.3 1081 1047.2 1081C989 1081 931 1081 872.8 1081C814.7 1081 756.3 1081 698.2 1081C640 1081 582 1081 523.8 1081C465.7 1081 407.3 1081 349.2 1081C291 1081 233 1081 174.8 1081C116.7 1081 58.3 1081 29.2 1081L0 1081Z" fill="#fa9a29"></path><path d="M0 885L29.2 882C58.3 879 116.7 873 174.8 877.3C233 881.7 291 896.3 349.2 908.3C407.3 920.3 465.7 929.7 523.8 938C582 946.3 640 953.7 698.2 957.2C756.3 960.7 814.7 960.3 872.8 956.5C931 952.7 989 945.3 1047.2 939.2C1105.3 933 1163.7 928 1221.8 922.5C1280 917 1338 911 1396.2 914.5C1454.3 918 1512.7 931 1570.8 925.5C1629 920 1687 896 1745.2 885.3C1803.3 874.7 1861.7 877.3 1890.8 878.7L1920 880L1920 1081L1890.8 1081C1861.7 1081 1803.3 1081 1745.2 1081C1687 1081 1629 1081 1570.8 1081C1512.7 1081 1454.3 1081 1396.2 1081C1338 1081 1280 1081 1221.8 1081C1163.7 1081 1105.3 1081 1047.2 1081C989 1081 931 1081 872.8 1081C814.7 1081 756.3 1081 698.2 1081C640 1081 582 1081 523.8 1081C465.7 1081 407.3 1081 349.2 1081C291 1081 233 1081 174.8 1081C116.7 1081 58.3 1081 29.2 1081L0 1081Z" fill="#f98e20"></path><path d="M0 956L29.2 953.3C58.3 950.7 116.7 945.3 174.8 947.5C233 949.7 291 959.3 349.2 969.8C407.3 980.3 465.7 991.7 523.8 995.2C582 998.7 640 994.3 698.2 984.7C756.3 975 814.7 960 872.8 954.3C931 948.7 989 952.3 1047.2 951C1105.3 949.7 1163.7 943.3 1221.8 946C1280 948.7 1338 960.3 1396.2 967.2C1454.3 974 1512.7 976 1570.8 981.5C1629 987 1687 996 1745.2 994.5C1803.3 993 1861.7 981 1890.8 975L1920 969L1920 1081L1890.8 1081C1861.7 1081 1803.3 1081 1745.2 1081C1687 1081 1629 1081 1570.8 1081C1512.7 1081 1454.3 1081 1396.2 1081C1338 1081 1280 1081 1221.8 1081C1163.7 1081 1105.3 1081 1047.2 1081C989 1081 931 1081 872.8 1081C814.7 1081 756.3 1081 698.2 1081C640 1081 582 1081 523.8 1081C465.7 1081 407.3 1081 349.2 1081C291 1081 233 1081 174.8 1081C116.7 1081 58.3 1081 29.2 1081L0 1081Z" fill="#f88317"></path><path d="M0 1044L29.2 1040.5C58.3 1037 116.7 1030 174.8 1024.8C233 1019.7 291 1016.3 349.2 1015.8C407.3 1015.3 465.7 1017.7 523.8 1016C582 1014.3 640 1008.7 698.2 1012.8C756.3 1017 814.7 1031 872.8 1035.5C931 1040 989 1035 1047.2 1030.2C1105.3 1025.3 1163.7 1020.7 1221.8 1022C1280 1023.3 1338 1030.7 1396.2 1030C1454.3 1029.3 1512.7 1020.7 1570.8 1015.2C1629 1009.7 1687 1007.3 1745.2 1012.3C1803.3 1017.3 1861.7 1029.7 1890.8 1035.8L1920 1042L1920 1081L1890.8 1081C1861.7 1081 1803.3 1081 1745.2 1081C1687 1081 1629 1081 1570.8 1081C1512.7 1081 1454.3 1081 1396.2 1081C1338 1081 1280 1081 1221.8 1081C1163.7 1081 1105.3 1081 1047.2 1081C989 1081 931 1081 872.8 1081C814.7 1081 756.3 1081 698.2 1081C640 1081 582 1081 523.8 1081C465.7 1081 407.3 1081 349.2 1081C291 1081 233 1081 174.8 1081C116.7 1081 58.3 1081 29.2 1081L0 1081Z" fill="#f7770f"></path></svg>