<svg id="visual" viewBox="0 0 900 600" width="900" height="600" xmlns="http://www.w3.org/2000/svg" xmlns:xlink="http://www.w3.org/1999/xlink" version="1.1"><g stroke-width="1" stroke-linejoin="bevel"><path d="M508 307L605 370L562 310Z" fill="#00658a" stroke="#00daab"></path><path d="M508 307L471 422L605 370Z" fill="#00658a" stroke="#00daab"></path><path d="M471 422L637 461L605 370Z" fill="#004874" stroke="#00daab"></path><path d="M471 471L637 461L471 422Z" fill="#004874" stroke="#00daab"></path><path d="M384 418L416 468L471 422Z" fill="#00839b" stroke="#00daab"></path><path d="M471 422L416 468L471 471Z" fill="#00ba7e" stroke="#00daab"></path><path d="M371 313L384 418L471 422Z" fill="#004874" stroke="#00daab"></path><path d="M508 307L371 313L471 422Z" fill="#0092a2" stroke="#00daab"></path><path d="M734 263L628 224L605 370Z" fill="#007493" stroke="#00daab"></path><path d="M605 370L628 224L562 310Z" fill="#007493" stroke="#00daab"></path><path d="M562 310L628 224L508 307Z" fill="#0092a2" stroke="#00daab"></path><path d="M508 307L467 167L371 313Z" fill="#003a67" stroke="#00daab"></path><path d="M637 461L712 423L605 370Z" fill="#004874" stroke="#00daab"></path><path d="M624 600L694 492L637 461Z" fill="#00a09f" stroke="#00daab"></path><path d="M637 461L694 492L712 423Z" fill="#04c462" stroke="#00daab"></path><path d="M516 600L637 461L471 471Z" fill="#00ad93" stroke="#00daab"></path><path d="M628 224L467 167L508 307Z" fill="#004874" stroke="#00daab"></path><path d="M384 418L292 484L416 468Z" fill="#00839b" stroke="#00daab"></path><path d="M371 313L311 399L384 418Z" fill="#004874" stroke="#00daab"></path><path d="M289 293L311 399L371 313Z" fill="#00a09f" stroke="#00daab"></path><path d="M391 600L471 471L416 468Z" fill="#003a67" stroke="#00daab"></path><path d="M391 600L516 600L471 471Z" fill="#007493" stroke="#00daab"></path><path d="M712 423L734 263L605 370Z" fill="#04c462" stroke="#00daab"></path><path d="M516 600L624 600L637 461Z" fill="#00ad93" stroke="#00daab"></path><path d="M467 167L381 178L371 313Z" fill="#00577f" stroke="#00daab"></path><path d="M381 178L289 293L371 313Z" fill="#003a67" stroke="#00daab"></path><path d="M167 375L292 484L311 399Z" fill="#00658a" stroke="#00daab"></path><path d="M311 399L292 484L384 418Z" fill="#00ad93" stroke="#00daab"></path><path d="M602 101L522 115L628 224Z" fill="#00ad93" stroke="#00daab"></path><path d="M628 224L522 115L467 167Z" fill="#00577f" stroke="#00daab"></path><path d="M467 167L395 94L381 178Z" fill="#00658a" stroke="#00daab"></path><path d="M336 600L391 600L416 468Z" fill="#00839b" stroke="#00daab"></path><path d="M734 263L686 163L628 224Z" fill="#00577f" stroke="#00daab"></path><path d="M686 163L602 101L628 224Z" fill="#00a09f" stroke="#00daab"></path><path d="M624 600L713 600L694 492Z" fill="#00ad93" stroke="#00daab"></path><path d="M694 492L818 476L712 423Z" fill="#004874" stroke="#00daab"></path><path d="M712 423L834 410L734 263Z" fill="#004874" stroke="#00daab"></path><path d="M292 484L336 600L416 468Z" fill="#0092a2" stroke="#00daab"></path><path d="M713 600L818 476L694 492Z" fill="#003a67" stroke="#00daab"></path><path d="M172 182L232 327L289 293Z" fill="#004874" stroke="#00daab"></path><path d="M289 293L232 327L311 399Z" fill="#00658a" stroke="#00daab"></path><path d="M292 484L238 519L336 600Z" fill="#04c462" stroke="#00daab"></path><path d="M818 476L834 410L712 423Z" fill="#00658a" stroke="#00daab"></path><path d="M734 263L760 167L686 163Z" fill="#00658a" stroke="#00daab"></path><path d="M836 264L760 167L734 263Z" fill="#04c462" stroke="#00daab"></path><path d="M686 163L707 98L602 101Z" fill="#00658a" stroke="#00daab"></path><path d="M522 115L395 94L467 167Z" fill="#004874" stroke="#00daab"></path><path d="M381 178L280 175L289 293Z" fill="#00a09f" stroke="#00daab"></path><path d="M503 0L395 94L522 115Z" fill="#0092a2" stroke="#00daab"></path><path d="M333 86L280 175L381 178Z" fill="#00a09f" stroke="#00daab"></path><path d="M834 410L836 264L734 263Z" fill="#00ad93" stroke="#00daab"></path><path d="M167 375L238 519L292 484Z" fill="#00577f" stroke="#00daab"></path><path d="M833 86L707 98L760 167Z" fill="#00839b" stroke="#00daab"></path><path d="M760 167L707 98L686 163Z" fill="#007493" stroke="#00daab"></path><path d="M382 0L333 86L395 94Z" fill="#00577f" stroke="#00daab"></path><path d="M503 0L522 115L578 0Z" fill="#004874" stroke="#00daab"></path><path d="M395 94L333 86L381 178Z" fill="#04c462" stroke="#00daab"></path><path d="M713 600L818 600L818 476Z" fill="#04c462" stroke="#00daab"></path><path d="M900 463L900 370L834 410Z" fill="#003a67" stroke="#00daab"></path><path d="M105 321L167 375L232 327Z" fill="#00577f" stroke="#00daab"></path><path d="M232 327L167 375L311 399Z" fill="#00839b" stroke="#00daab"></path><path d="M900 463L834 410L818 476Z" fill="#00839b" stroke="#00daab"></path><path d="M834 410L900 329L836 264Z" fill="#0092a2" stroke="#00daab"></path><path d="M900 370L900 329L834 410Z" fill="#003a67" stroke="#00daab"></path><path d="M836 264L900 230L760 167Z" fill="#007493" stroke="#00daab"></path><path d="M73 600L225 600L238 519Z" fill="#003a67" stroke="#00daab"></path><path d="M238 519L225 600L336 600Z" fill="#0092a2" stroke="#00daab"></path><path d="M578 0L522 115L602 101Z" fill="#004874" stroke="#00daab"></path><path d="M900 600L900 463L818 476Z" fill="#004874" stroke="#00daab"></path><path d="M707 98L578 0L602 101Z" fill="#003a67" stroke="#00daab"></path><path d="M900 329L900 230L836 264Z" fill="#04c462" stroke="#00daab"></path><path d="M707 98L736 0L578 0Z" fill="#00658a" stroke="#00daab"></path><path d="M188 92L172 182L280 175Z" fill="#00839b" stroke="#00daab"></path><path d="M503 0L382 0L395 94Z" fill="#00839b" stroke="#00daab"></path><path d="M280 175L172 182L289 293Z" fill="#0092a2" stroke="#00daab"></path><path d="M188 92L280 175L333 86Z" fill="#00ad93" stroke="#00daab"></path><path d="M900 118L833 86L760 167Z" fill="#007493" stroke="#00daab"></path><path d="M833 86L736 0L707 98Z" fill="#00ba7e" stroke="#00daab"></path><path d="M172 182L105 321L232 327Z" fill="#00a09f" stroke="#00daab"></path><path d="M167 375L86 474L238 519Z" fill="#00ba7e" stroke="#00daab"></path><path d="M818 600L900 600L818 476Z" fill="#00658a" stroke="#00daab"></path><path d="M105 321L97 389L167 375Z" fill="#00ba7e" stroke="#00daab"></path><path d="M287 0L188 92L333 86Z" fill="#00a09f" stroke="#00daab"></path><path d="M172 182L98 203L105 321Z" fill="#00577f" stroke="#00daab"></path><path d="M382 0L287 0L333 86Z" fill="#00839b" stroke="#00daab"></path><path d="M900 230L900 118L760 167Z" fill="#007493" stroke="#00daab"></path><path d="M833 86L839 0L736 0Z" fill="#04c462" stroke="#00daab"></path><path d="M0 413L86 474L97 389Z" fill="#003a67" stroke="#00daab"></path><path d="M97 389L86 474L167 375Z" fill="#00ba7e" stroke="#00daab"></path><path d="M122 96L98 203L172 182Z" fill="#003a67" stroke="#00daab"></path><path d="M0 294L0 413L97 389Z" fill="#00ba7e" stroke="#00daab"></path><path d="M900 0L839 0L833 86Z" fill="#00839b" stroke="#00daab"></path><path d="M287 0L212 0L188 92Z" fill="#00577f" stroke="#00daab"></path><path d="M188 92L122 96L172 182Z" fill="#00ad93" stroke="#00daab"></path><path d="M212 0L122 96L188 92Z" fill="#04c462" stroke="#00daab"></path><path d="M0 530L73 600L86 474Z" fill="#004874" stroke="#00daab"></path><path d="M86 474L73 600L238 519Z" fill="#004874" stroke="#00daab"></path><path d="M900 118L900 0L833 86Z" fill="#00ba7e" stroke="#00daab"></path><path d="M0 294L97 389L105 321Z" fill="#00839b" stroke="#00daab"></path><path d="M0 294L105 321L98 203Z" fill="#004874" stroke="#00daab"></path><path d="M0 175L0 294L98 203Z" fill="#00577f" stroke="#00daab"></path><path d="M0 413L0 530L86 474Z" fill="#003a67" stroke="#00daab"></path><path d="M0 93L0 175L122 96Z" fill="#00a09f" stroke="#00daab"></path><path d="M122 96L0 175L98 203Z" fill="#00ba7e" stroke="#00daab"></path><path d="M0 530L0 600L73 600Z" fill="#004874" stroke="#00daab"></path><path d="M212 0L82 0L122 96Z" fill="#004874" stroke="#00daab"></path><path d="M82 0L0 93L122 96Z" fill="#00ba7e" stroke="#00daab"></path><path d="M82 0L0 0L0 93Z" fill="#04c462" stroke="#00daab"></path></g></svg>