<svg id="visual" viewBox="0 0 1920 1080" width="1920" height="1080" xmlns="http://www.w3.org/2000/svg" xmlns:xlink="http://www.w3.org/1999/xlink" version="1.1"><g stroke-width="1" stroke-linejoin="bevel"><path d="M962 527L1024 592L1065 543Z" fill="#006a91" stroke="#715DF2"></path><path d="M1130 612L1126 526L1065 543Z" fill="#004972" stroke="#715DF2"></path><path d="M1065 543L1080 436L962 527Z" fill="#007b9f" stroke="#715DF2"></path><path d="M962 527L957 641L1024 592Z" fill="#00d3c0" stroke="#715DF2"></path><path d="M1024 592L1130 612L1065 543Z" fill="#00c2c2" stroke="#715DF2"></path><path d="M1122 477L1080 436L1065 543Z" fill="#00d3c0" stroke="#715DF2"></path><path d="M1126 526L1122 477L1065 543Z" fill="#006a91" stroke="#715DF2"></path><path d="M1080 436L926 440L962 527Z" fill="#003962" stroke="#715DF2"></path><path d="M962 527L877 565L957 641Z" fill="#004972" stroke="#715DF2"></path><path d="M1028 720L1130 612L1024 592Z" fill="#004972" stroke="#715DF2"></path><path d="M926 440L877 565L962 527Z" fill="#009fb8" stroke="#715DF2"></path><path d="M877 565L877 603L957 641Z" fill="#00d3c0" stroke="#715DF2"></path><path d="M868 707L989 698L957 641Z" fill="#00b1bf" stroke="#715DF2"></path><path d="M957 641L989 698L1024 592Z" fill="#00d3c0" stroke="#715DF2"></path><path d="M1150 330L1045 368L1080 436Z" fill="#00d3c0" stroke="#715DF2"></path><path d="M1080 436L1045 368L926 440Z" fill="#007b9f" stroke="#715DF2"></path><path d="M989 698L1028 720L1024 592Z" fill="#008dac" stroke="#715DF2"></path><path d="M936 346L900 393L926 440Z" fill="#00e4ba" stroke="#715DF2"></path><path d="M926 440L830 412L877 565Z" fill="#00e4ba" stroke="#715DF2"></path><path d="M1130 612L1219 535L1126 526Z" fill="#00c2c2" stroke="#715DF2"></path><path d="M1126 526L1219 535L1122 477Z" fill="#004972" stroke="#715DF2"></path><path d="M1122 477L1150 330L1080 436Z" fill="#004972" stroke="#715DF2"></path><path d="M1253 639L1219 535L1130 612Z" fill="#00c2c2" stroke="#715DF2"></path><path d="M1045 368L936 346L926 440Z" fill="#00e4ba" stroke="#715DF2"></path><path d="M761 659L868 707L877 603Z" fill="#008dac" stroke="#715DF2"></path><path d="M877 603L868 707L957 641Z" fill="#00c2c2" stroke="#715DF2"></path><path d="M989 698L967 791L1028 720Z" fill="#006a91" stroke="#715DF2"></path><path d="M793 366L830 412L900 393Z" fill="#007b9f" stroke="#715DF2"></path><path d="M900 393L830 412L926 440Z" fill="#00b1bf" stroke="#715DF2"></path><path d="M877 565L753 561L877 603Z" fill="#004972" stroke="#715DF2"></path><path d="M1028 720L1189 683L1130 612Z" fill="#009fb8" stroke="#715DF2"></path><path d="M1045 368L962 300L936 346Z" fill="#007b9f" stroke="#715DF2"></path><path d="M936 346L899 288L900 393Z" fill="#009fb8" stroke="#715DF2"></path><path d="M1273 363L1150 330L1122 477Z" fill="#00e4ba" stroke="#715DF2"></path><path d="M1045 368L1049 259L962 300Z" fill="#008dac" stroke="#715DF2"></path><path d="M868 707L967 791L989 698Z" fill="#00c2c2" stroke="#715DF2"></path><path d="M1028 720L1150 785L1189 683Z" fill="#007b9f" stroke="#715DF2"></path><path d="M1189 683L1253 639L1130 612Z" fill="#009fb8" stroke="#715DF2"></path><path d="M793 366L768 453L830 412Z" fill="#00c2c2" stroke="#715DF2"></path><path d="M830 412L768 453L877 565Z" fill="#00d3c0" stroke="#715DF2"></path><path d="M768 453L753 561L877 565Z" fill="#009fb8" stroke="#715DF2"></path><path d="M1328 526L1270 483L1219 535Z" fill="#009fb8" stroke="#715DF2"></path><path d="M1219 535L1270 483L1122 477Z" fill="#004972" stroke="#715DF2"></path><path d="M1027 195L899 288L962 300Z" fill="#003962" stroke="#715DF2"></path><path d="M962 300L899 288L936 346Z" fill="#005982" stroke="#715DF2"></path><path d="M753 561L761 659L877 603Z" fill="#00c2c2" stroke="#715DF2"></path><path d="M868 707L895 818L967 791Z" fill="#00b1bf" stroke="#715DF2"></path><path d="M1037 840L1150 785L1028 720Z" fill="#003962" stroke="#715DF2"></path><path d="M1189 683L1270 722L1253 639Z" fill="#009fb8" stroke="#715DF2"></path><path d="M899 288L793 366L900 393Z" fill="#008dac" stroke="#715DF2"></path><path d="M1150 330L1049 259L1045 368Z" fill="#006a91" stroke="#715DF2"></path><path d="M761 659L792 735L868 707Z" fill="#005982" stroke="#715DF2"></path><path d="M1037 882L1037 840L941 884Z" fill="#00c2c2" stroke="#715DF2"></path><path d="M967 791L1037 840L1028 720Z" fill="#007b9f" stroke="#715DF2"></path><path d="M792 735L895 818L868 707Z" fill="#006a91" stroke="#715DF2"></path><path d="M1150 785L1270 722L1189 683Z" fill="#006a91" stroke="#715DF2"></path><path d="M1253 639L1328 526L1219 535Z" fill="#008dac" stroke="#715DF2"></path><path d="M1333 467L1273 363L1270 483Z" fill="#004972" stroke="#715DF2"></path><path d="M1270 483L1273 363L1122 477Z" fill="#00d3c0" stroke="#715DF2"></path><path d="M1150 330L1125 246L1049 259Z" fill="#00b1bf" stroke="#715DF2"></path><path d="M1217 286L1125 246L1150 330Z" fill="#00b1bf" stroke="#715DF2"></path><path d="M1330 647L1328 526L1253 639Z" fill="#005982" stroke="#715DF2"></path><path d="M1273 363L1217 286L1150 330Z" fill="#008dac" stroke="#715DF2"></path><path d="M1328 526L1333 467L1270 483Z" fill="#008dac" stroke="#715DF2"></path><path d="M1270 722L1330 647L1253 639Z" fill="#00e4ba" stroke="#715DF2"></path><path d="M1328 526L1412 456L1333 467Z" fill="#00c2c2" stroke="#715DF2"></path><path d="M941 884L1037 840L967 791Z" fill="#00d3c0" stroke="#715DF2"></path><path d="M1037 840L1181 878L1150 785Z" fill="#00d3c0" stroke="#715DF2"></path><path d="M1150 785L1244 816L1270 722Z" fill="#00b1bf" stroke="#715DF2"></path><path d="M1125 246L1027 195L1049 259Z" fill="#008dac" stroke="#715DF2"></path><path d="M1049 259L1027 195L962 300Z" fill="#005982" stroke="#715DF2"></path><path d="M994 142L1027 195L1057 110Z" fill="#00e4ba" stroke="#715DF2"></path><path d="M878 931L941 884L895 818Z" fill="#009fb8" stroke="#715DF2"></path><path d="M895 818L941 884L967 791Z" fill="#00b1bf" stroke="#715DF2"></path><path d="M673 444L663 570L753 561Z" fill="#00d3c0" stroke="#715DF2"></path><path d="M753 561L658 635L761 659Z" fill="#005982" stroke="#715DF2"></path><path d="M695 776L741 810L792 735Z" fill="#008dac" stroke="#715DF2"></path><path d="M673 444L753 561L768 453Z" fill="#009fb8" stroke="#715DF2"></path><path d="M658 394L768 453L793 366Z" fill="#007b9f" stroke="#715DF2"></path><path d="M658 394L673 444L768 453Z" fill="#00d3c0" stroke="#715DF2"></path><path d="M743 280L793 366L899 288Z" fill="#005982" stroke="#715DF2"></path><path d="M1181 878L1244 816L1150 785Z" fill="#005982" stroke="#715DF2"></path><path d="M1270 722L1327 750L1330 647Z" fill="#004972" stroke="#715DF2"></path><path d="M663 570L658 635L753 561Z" fill="#00d3c0" stroke="#715DF2"></path><path d="M792 735L741 810L895 818Z" fill="#007b9f" stroke="#715DF2"></path><path d="M790 187L743 280L899 288Z" fill="#00b1bf" stroke="#715DF2"></path><path d="M1037 882L1181 878L1037 840Z" fill="#00e4ba" stroke="#715DF2"></path><path d="M1355 824L1327 750L1244 816Z" fill="#00c2c2" stroke="#715DF2"></path><path d="M1244 816L1327 750L1270 722Z" fill="#004972" stroke="#715DF2"></path><path d="M695 776L792 735L761 659Z" fill="#00e4ba" stroke="#715DF2"></path><path d="M743 280L658 394L793 366Z" fill="#00e4ba" stroke="#715DF2"></path><path d="M673 444L603 511L663 570Z" fill="#009fb8" stroke="#715DF2"></path><path d="M663 570L560 657L658 635Z" fill="#009fb8" stroke="#715DF2"></path><path d="M1273 363L1342 341L1217 286Z" fill="#00e4ba" stroke="#715DF2"></path><path d="M1057 110L1027 195L1125 246Z" fill="#004972" stroke="#715DF2"></path><path d="M1333 467L1342 341L1273 363Z" fill="#007b9f" stroke="#715DF2"></path><path d="M1412 456L1342 341L1333 467Z" fill="#005982" stroke="#715DF2"></path><path d="M1412 456L1328 526L1447 529Z" fill="#005982" stroke="#715DF2"></path><path d="M650 700L695 776L761 659Z" fill="#00e4ba" stroke="#715DF2"></path><path d="M658 635L650 700L761 659Z" fill="#003962" stroke="#715DF2"></path><path d="M560 657L650 700L658 635Z" fill="#00d3c0" stroke="#715DF2"></path><path d="M1178 162L1125 246L1217 286Z" fill="#00b1bf" stroke="#715DF2"></path><path d="M1027 195L994 142L899 288Z" fill="#003962" stroke="#715DF2"></path><path d="M1181 878L1238 876L1244 816Z" fill="#007b9f" stroke="#715DF2"></path><path d="M1415 663L1328 526L1330 647Z" fill="#009fb8" stroke="#715DF2"></path><path d="M542 441L603 511L673 444Z" fill="#004972" stroke="#715DF2"></path><path d="M779 908L878 931L895 818Z" fill="#004972" stroke="#715DF2"></path><path d="M941 884L953 960L1037 882Z" fill="#008dac" stroke="#715DF2"></path><path d="M1037 882L1064 964L1181 878Z" fill="#005982" stroke="#715DF2"></path><path d="M1181 878L1222 992L1238 876Z" fill="#009fb8" stroke="#715DF2"></path><path d="M779 908L895 818L741 810Z" fill="#00c2c2" stroke="#715DF2"></path><path d="M1236 161L1178 162L1217 286Z" fill="#008dac" stroke="#715DF2"></path><path d="M826 148L790 187L899 288Z" fill="#007b9f" stroke="#715DF2"></path><path d="M743 280L613 347L658 394Z" fill="#003962" stroke="#715DF2"></path><path d="M1473 750L1415 663L1327 750Z" fill="#00c2c2" stroke="#715DF2"></path><path d="M1327 750L1415 663L1330 647Z" fill="#00d3c0" stroke="#715DF2"></path><path d="M878 931L953 960L941 884Z" fill="#00c2c2" stroke="#715DF2"></path><path d="M953 960L1064 964L1037 882Z" fill="#00c2c2" stroke="#715DF2"></path><path d="M1178 162L1057 110L1125 246Z" fill="#009fb8" stroke="#715DF2"></path><path d="M863 126L826 148L899 288Z" fill="#00d3c0" stroke="#715DF2"></path><path d="M1415 663L1447 529L1328 526Z" fill="#006a91" stroke="#715DF2"></path><path d="M863 126L899 288L994 142Z" fill="#009fb8" stroke="#715DF2"></path><path d="M738 953L779 908L641 882Z" fill="#007b9f" stroke="#715DF2"></path><path d="M878 931L846 997L953 960Z" fill="#005982" stroke="#715DF2"></path><path d="M1408 274L1367 280L1342 341Z" fill="#006a91" stroke="#715DF2"></path><path d="M1342 341L1367 280L1217 286Z" fill="#003962" stroke="#715DF2"></path><path d="M1442 382L1342 341L1412 456Z" fill="#009fb8" stroke="#715DF2"></path><path d="M1358 201L1236 161L1217 286Z" fill="#00c2c2" stroke="#715DF2"></path><path d="M1178 162L1164 61L1057 110Z" fill="#00c2c2" stroke="#715DF2"></path><path d="M974 96L863 126L994 142Z" fill="#00d3c0" stroke="#715DF2"></path><path d="M611 306L613 347L743 280Z" fill="#007b9f" stroke="#715DF2"></path><path d="M658 394L542 441L673 444Z" fill="#004972" stroke="#715DF2"></path><path d="M665 233L743 280L790 187Z" fill="#003962" stroke="#715DF2"></path><path d="M1352 904L1355 824L1238 876Z" fill="#007b9f" stroke="#715DF2"></path><path d="M1238 876L1355 824L1244 816Z" fill="#004972" stroke="#715DF2"></path><path d="M1057 110L974 96L994 142Z" fill="#008dac" stroke="#715DF2"></path><path d="M1564 472L1442 382L1412 456Z" fill="#003962" stroke="#715DF2"></path><path d="M645 193L665 233L790 187Z" fill="#00e4ba" stroke="#715DF2"></path><path d="M645 193L790 187L639 111Z" fill="#00e4ba" stroke="#715DF2"></path><path d="M665 233L611 306L743 280Z" fill="#00b1bf" stroke="#715DF2"></path><path d="M492 663L560 657L466 556Z" fill="#005982" stroke="#715DF2"></path><path d="M542 441L658 394L613 347Z" fill="#006a91" stroke="#715DF2"></path><path d="M603 511L560 657L663 570Z" fill="#008dac" stroke="#715DF2"></path><path d="M650 700L591 743L695 776Z" fill="#003962" stroke="#715DF2"></path><path d="M641 882L779 908L741 810Z" fill="#00c2c2" stroke="#715DF2"></path><path d="M560 657L591 743L650 700Z" fill="#00b1bf" stroke="#715DF2"></path><path d="M1344 70L1211 116L1236 161Z" fill="#003962" stroke="#715DF2"></path><path d="M1236 161L1211 116L1178 162Z" fill="#008dac" stroke="#715DF2"></path><path d="M1057 110L1032 0L974 96Z" fill="#009fb8" stroke="#715DF2"></path><path d="M1442 382L1408 274L1342 341Z" fill="#009fb8" stroke="#715DF2"></path><path d="M1367 280L1358 201L1217 286Z" fill="#008dac" stroke="#715DF2"></path><path d="M501 374L542 441L613 347Z" fill="#007b9f" stroke="#715DF2"></path><path d="M1417 213L1358 201L1367 280Z" fill="#005982" stroke="#715DF2"></path><path d="M779 908L846 997L878 931Z" fill="#004972" stroke="#715DF2"></path><path d="M1081 1080L1176 1019L1064 964Z" fill="#009fb8" stroke="#715DF2"></path><path d="M738 953L846 997L779 908Z" fill="#003962" stroke="#715DF2"></path><path d="M641 882L741 810L695 776Z" fill="#009fb8" stroke="#715DF2"></path><path d="M1328 967L1352 904L1238 876Z" fill="#004972" stroke="#715DF2"></path><path d="M1355 824L1473 750L1327 750Z" fill="#007b9f" stroke="#715DF2"></path><path d="M1176 1019L1181 878L1064 964Z" fill="#003962" stroke="#715DF2"></path><path d="M1176 1019L1222 992L1181 878Z" fill="#004972" stroke="#715DF2"></path><path d="M1144 0L1164 61L1274 0Z" fill="#003962" stroke="#715DF2"></path><path d="M1211 116L1164 61L1178 162Z" fill="#00d3c0" stroke="#715DF2"></path><path d="M591 743L641 882L695 776Z" fill="#00e4ba" stroke="#715DF2"></path><path d="M568 874L641 882L591 743Z" fill="#00c2c2" stroke="#715DF2"></path><path d="M949 1080L1064 964L953 960Z" fill="#00b1bf" stroke="#715DF2"></path><path d="M1450 845L1473 750L1355 824Z" fill="#00c2c2" stroke="#715DF2"></path><path d="M1567 652L1531 529L1447 529Z" fill="#007b9f" stroke="#715DF2"></path><path d="M1447 529L1564 472L1412 456Z" fill="#007b9f" stroke="#715DF2"></path><path d="M800 62L790 187L826 148Z" fill="#003962" stroke="#715DF2"></path><path d="M665 233L645 193L611 306Z" fill="#004972" stroke="#715DF2"></path><path d="M611 306L501 374L613 347Z" fill="#00d3c0" stroke="#715DF2"></path><path d="M1567 652L1447 529L1415 663Z" fill="#007b9f" stroke="#715DF2"></path><path d="M1570 267L1417 213L1408 274Z" fill="#007b9f" stroke="#715DF2"></path><path d="M1408 274L1417 213L1367 280Z" fill="#009fb8" stroke="#715DF2"></path><path d="M1274 0L1164 61L1211 116Z" fill="#00b1bf" stroke="#715DF2"></path><path d="M1537 323L1408 274L1442 382Z" fill="#007b9f" stroke="#715DF2"></path><path d="M863 126L800 62L826 148Z" fill="#009fb8" stroke="#715DF2"></path><path d="M835 0L800 62L863 126Z" fill="#004972" stroke="#715DF2"></path><path d="M924 0L863 126L974 96Z" fill="#00c2c2" stroke="#715DF2"></path><path d="M507 695L591 743L560 657Z" fill="#007b9f" stroke="#715DF2"></path><path d="M507 695L539 772L591 743Z" fill="#005982" stroke="#715DF2"></path><path d="M492 663L507 695L560 657Z" fill="#006a91" stroke="#715DF2"></path><path d="M1222 992L1328 967L1238 876Z" fill="#009fb8" stroke="#715DF2"></path><path d="M1432 875L1450 845L1355 824Z" fill="#004972" stroke="#715DF2"></path><path d="M1246 1080L1328 967L1222 992Z" fill="#007b9f" stroke="#715DF2"></path><path d="M1432 875L1355 824L1352 904Z" fill="#006a91" stroke="#715DF2"></path><path d="M1612 470L1564 472L1531 529Z" fill="#006a91" stroke="#715DF2"></path><path d="M466 556L560 657L603 511Z" fill="#008dac" stroke="#715DF2"></path><path d="M476 797L568 874L539 772Z" fill="#004972" stroke="#715DF2"></path><path d="M1457 988L1432 875L1352 904Z" fill="#00b1bf" stroke="#715DF2"></path><path d="M493 238L501 374L611 306Z" fill="#00c2c2" stroke="#715DF2"></path><path d="M542 441L466 556L603 511Z" fill="#00b1bf" stroke="#715DF2"></path><path d="M1144 0L1032 0L1057 110Z" fill="#00d3c0" stroke="#715DF2"></path><path d="M901 1080L953 960L846 997Z" fill="#003962" stroke="#715DF2"></path><path d="M901 1080L949 1080L953 960Z" fill="#00c2c2" stroke="#715DF2"></path><path d="M949 1080L1081 1080L1064 964Z" fill="#005982" stroke="#715DF2"></path><path d="M1176 1019L1246 1080L1222 992Z" fill="#00e4ba" stroke="#715DF2"></path><path d="M460 478L466 556L542 441Z" fill="#003962" stroke="#715DF2"></path><path d="M1032 0L924 0L974 96Z" fill="#00c2c2" stroke="#715DF2"></path><path d="M790 1080L901 1080L846 997Z" fill="#004972" stroke="#715DF2"></path><path d="M790 1080L846 997L738 953Z" fill="#004972" stroke="#715DF2"></path><path d="M1081 1080L1138 1080L1176 1019Z" fill="#003962" stroke="#715DF2"></path><path d="M476 797L539 772L507 695Z" fill="#006a91" stroke="#715DF2"></path><path d="M539 772L568 874L591 743Z" fill="#008dac" stroke="#715DF2"></path><path d="M641 882L665 977L738 953Z" fill="#00e4ba" stroke="#715DF2"></path><path d="M1567 652L1415 663L1556 715Z" fill="#00e4ba" stroke="#715DF2"></path><path d="M1531 529L1564 472L1447 529Z" fill="#006a91" stroke="#715DF2"></path><path d="M501 374L460 478L542 441Z" fill="#005982" stroke="#715DF2"></path><path d="M1344 70L1236 161L1358 201Z" fill="#00b1bf" stroke="#715DF2"></path><path d="M1164 61L1144 0L1057 110Z" fill="#00b1bf" stroke="#715DF2"></path><path d="M568 874L665 977L641 882Z" fill="#003962" stroke="#715DF2"></path><path d="M1534 772L1473 750L1450 845Z" fill="#007b9f" stroke="#715DF2"></path><path d="M1556 715L1415 663L1473 750Z" fill="#00c2c2" stroke="#715DF2"></path><path d="M1564 472L1537 323L1442 382Z" fill="#00e4ba" stroke="#715DF2"></path><path d="M924 0L835 0L863 126Z" fill="#003962" stroke="#715DF2"></path><path d="M800 62L639 111L790 187Z" fill="#00e4ba" stroke="#715DF2"></path><path d="M677 0L639 111L800 62Z" fill="#006a91" stroke="#715DF2"></path><path d="M645 193L548 159L611 306Z" fill="#006a91" stroke="#715DF2"></path><path d="M1532 890L1534 772L1450 845Z" fill="#00b1bf" stroke="#715DF2"></path><path d="M1534 772L1556 715L1473 750Z" fill="#009fb8" stroke="#715DF2"></path><path d="M1443 71L1358 201L1417 213Z" fill="#003962" stroke="#715DF2"></path><path d="M1443 71L1344 70L1358 201Z" fill="#004972" stroke="#715DF2"></path><path d="M665 977L790 1080L738 953Z" fill="#00c2c2" stroke="#715DF2"></path><path d="M1138 1080L1246 1080L1176 1019Z" fill="#008dac" stroke="#715DF2"></path><path d="M1457 988L1532 890L1432 875Z" fill="#005982" stroke="#715DF2"></path><path d="M1432 875L1532 890L1450 845Z" fill="#00c2c2" stroke="#715DF2"></path><path d="M835 0L782 0L800 62Z" fill="#003962" stroke="#715DF2"></path><path d="M393 699L476 797L507 695Z" fill="#009fb8" stroke="#715DF2"></path><path d="M568 874L564 1021L665 977Z" fill="#006a91" stroke="#715DF2"></path><path d="M393 699L507 695L492 663Z" fill="#007b9f" stroke="#715DF2"></path><path d="M366 626L492 663L466 556Z" fill="#00c2c2" stroke="#715DF2"></path><path d="M1344 70L1274 0L1211 116Z" fill="#006a91" stroke="#715DF2"></path><path d="M639 111L548 159L645 193Z" fill="#008dac" stroke="#715DF2"></path><path d="M501 374L408 467L460 478Z" fill="#005982" stroke="#715DF2"></path><path d="M580 97L548 159L639 111Z" fill="#004972" stroke="#715DF2"></path><path d="M548 159L493 238L611 306Z" fill="#009fb8" stroke="#715DF2"></path><path d="M1650 513L1612 470L1531 529Z" fill="#007b9f" stroke="#715DF2"></path><path d="M1564 472L1625 366L1537 323Z" fill="#003962" stroke="#715DF2"></path><path d="M1640 613L1531 529L1567 652Z" fill="#00e4ba" stroke="#715DF2"></path><path d="M390 335L408 467L501 374Z" fill="#005982" stroke="#715DF2"></path><path d="M460 478L408 467L466 556Z" fill="#006a91" stroke="#715DF2"></path><path d="M677 0L580 97L639 111Z" fill="#008dac" stroke="#715DF2"></path><path d="M548 159L508 153L493 238Z" fill="#003962" stroke="#715DF2"></path><path d="M1606 307L1570 267L1537 323Z" fill="#004972" stroke="#715DF2"></path><path d="M1537 323L1570 267L1408 274Z" fill="#005982" stroke="#715DF2"></path><path d="M1344 70L1342 0L1274 0Z" fill="#006a91" stroke="#715DF2"></path><path d="M1457 988L1352 904L1328 967Z" fill="#007b9f" stroke="#715DF2"></path><path d="M1534 772L1607 738L1556 715Z" fill="#009fb8" stroke="#715DF2"></path><path d="M1556 715L1607 738L1567 652Z" fill="#00e4ba" stroke="#715DF2"></path><path d="M1596 785L1607 738L1534 772Z" fill="#00c2c2" stroke="#715DF2"></path><path d="M408 467L383 561L466 556Z" fill="#007b9f" stroke="#715DF2"></path><path d="M1352 1080L1457 988L1328 967Z" fill="#003962" stroke="#715DF2"></path><path d="M1607 738L1640 613L1567 652Z" fill="#008dac" stroke="#715DF2"></path><path d="M1532 890L1596 785L1534 772Z" fill="#007b9f" stroke="#715DF2"></path><path d="M1716 640L1709 506L1640 613Z" fill="#007b9f" stroke="#715DF2"></path><path d="M1443 71L1342 0L1344 70Z" fill="#00d3c0" stroke="#715DF2"></path><path d="M580 97L508 153L548 159Z" fill="#00c2c2" stroke="#715DF2"></path><path d="M414 252L390 335L501 374Z" fill="#00d3c0" stroke="#715DF2"></path><path d="M782 0L677 0L800 62Z" fill="#006a91" stroke="#715DF2"></path><path d="M580 97L482 78L508 153Z" fill="#009fb8" stroke="#715DF2"></path><path d="M1612 470L1625 366L1564 472Z" fill="#009fb8" stroke="#715DF2"></path><path d="M1724 438L1625 366L1612 470Z" fill="#006a91" stroke="#715DF2"></path><path d="M1246 1080L1352 1080L1328 967Z" fill="#00e4ba" stroke="#715DF2"></path><path d="M1533 152L1443 71L1417 213Z" fill="#003962" stroke="#715DF2"></path><path d="M1625 366L1606 307L1537 323Z" fill="#00c2c2" stroke="#715DF2"></path><path d="M1570 267L1533 152L1417 213Z" fill="#006a91" stroke="#715DF2"></path><path d="M1640 613L1650 513L1531 529Z" fill="#00e4ba" stroke="#715DF2"></path><path d="M366 626L393 699L492 663Z" fill="#004972" stroke="#715DF2"></path><path d="M1665 201L1533 152L1570 267Z" fill="#003962" stroke="#715DF2"></path><path d="M383 561L366 626L466 556Z" fill="#004972" stroke="#715DF2"></path><path d="M414 252L501 374L493 238Z" fill="#004972" stroke="#715DF2"></path><path d="M293 571L366 626L383 561Z" fill="#009fb8" stroke="#715DF2"></path><path d="M293 571L304 626L366 626Z" fill="#003962" stroke="#715DF2"></path><path d="M507 988L564 1021L568 874Z" fill="#00c2c2" stroke="#715DF2"></path><path d="M665 977L636 1080L790 1080Z" fill="#00e4ba" stroke="#715DF2"></path><path d="M507 988L568 874L444 914Z" fill="#00d3c0" stroke="#715DF2"></path><path d="M564 1021L636 1080L665 977Z" fill="#003962" stroke="#715DF2"></path><path d="M302 691L410 810L393 699Z" fill="#005982" stroke="#715DF2"></path><path d="M393 699L410 810L476 797Z" fill="#00b1bf" stroke="#715DF2"></path><path d="M508 153L414 252L493 238Z" fill="#00e4ba" stroke="#715DF2"></path><path d="M456 1080L607 1080L564 1021Z" fill="#004972" stroke="#715DF2"></path><path d="M564 1021L607 1080L636 1080Z" fill="#004972" stroke="#715DF2"></path><path d="M444 914L568 874L476 797Z" fill="#00d3c0" stroke="#715DF2"></path><path d="M1521 0L1503 72L1621 0Z" fill="#00e4ba" stroke="#715DF2"></path><path d="M1533 152L1503 72L1443 71Z" fill="#003962" stroke="#715DF2"></path><path d="M1443 71L1467 0L1342 0Z" fill="#007b9f" stroke="#715DF2"></path><path d="M410 810L444 914L476 797Z" fill="#00c2c2" stroke="#715DF2"></path><path d="M1716 640L1640 613L1708 728Z" fill="#006a91" stroke="#715DF2"></path><path d="M1640 613L1709 506L1650 513Z" fill="#003962" stroke="#715DF2"></path><path d="M1650 513L1724 438L1612 470Z" fill="#008dac" stroke="#715DF2"></path><path d="M1760 303L1665 201L1606 307Z" fill="#00b1bf" stroke="#715DF2"></path><path d="M1606 307L1665 201L1570 267Z" fill="#004972" stroke="#715DF2"></path><path d="M1457 988L1538 1017L1532 890Z" fill="#007b9f" stroke="#715DF2"></path><path d="M1532 890L1604 933L1596 785Z" fill="#007b9f" stroke="#715DF2"></path><path d="M1352 1080L1462 1080L1457 988Z" fill="#007b9f" stroke="#715DF2"></path><path d="M677 0L563 0L580 97Z" fill="#00c2c2" stroke="#715DF2"></path><path d="M508 153L350 216L414 252Z" fill="#005982" stroke="#715DF2"></path><path d="M563 0L482 78L580 97Z" fill="#005982" stroke="#715DF2"></path><path d="M1503 72L1467 0L1443 71Z" fill="#006a91" stroke="#715DF2"></path><path d="M1462 1080L1538 1017L1457 988Z" fill="#006a91" stroke="#715DF2"></path><path d="M1708 728L1640 613L1607 738Z" fill="#00b1bf" stroke="#715DF2"></path><path d="M1538 1017L1604 933L1532 890Z" fill="#009fb8" stroke="#715DF2"></path><path d="M1708 728L1607 738L1596 785Z" fill="#003962" stroke="#715DF2"></path><path d="M293 571L383 561L281 441Z" fill="#003962" stroke="#715DF2"></path><path d="M366 626L302 691L393 699Z" fill="#00d3c0" stroke="#715DF2"></path><path d="M410 810L370 917L444 914Z" fill="#00e4ba" stroke="#715DF2"></path><path d="M383 561L408 467L281 441Z" fill="#00d3c0" stroke="#715DF2"></path><path d="M1748 367L1724 438L1845 484Z" fill="#008dac" stroke="#715DF2"></path><path d="M1709 506L1724 438L1650 513Z" fill="#007b9f" stroke="#715DF2"></path><path d="M1503 72L1521 0L1467 0Z" fill="#006a91" stroke="#715DF2"></path><path d="M1737 796L1708 728L1596 785Z" fill="#008dac" stroke="#715DF2"></path><path d="M281 441L408 467L288 371Z" fill="#00c2c2" stroke="#715DF2"></path><path d="M218 633L302 691L304 626Z" fill="#00e4ba" stroke="#715DF2"></path><path d="M304 626L302 691L366 626Z" fill="#004972" stroke="#715DF2"></path><path d="M1760 303L1606 307L1625 366Z" fill="#007b9f" stroke="#715DF2"></path><path d="M366 80L350 216L508 153Z" fill="#00c2c2" stroke="#715DF2"></path><path d="M414 252L312 289L390 335Z" fill="#008dac" stroke="#715DF2"></path><path d="M288 371L408 467L390 335Z" fill="#00b1bf" stroke="#715DF2"></path><path d="M208 825L307 841L302 691Z" fill="#004972" stroke="#715DF2"></path><path d="M1654 54L1503 72L1533 152Z" fill="#005982" stroke="#715DF2"></path><path d="M1538 1017L1623 964L1604 933Z" fill="#00b1bf" stroke="#715DF2"></path><path d="M1604 933L1737 796L1596 785Z" fill="#00c2c2" stroke="#715DF2"></path><path d="M1601 1080L1623 964L1538 1017Z" fill="#006a91" stroke="#715DF2"></path><path d="M312 289L288 371L390 335Z" fill="#00c2c2" stroke="#715DF2"></path><path d="M350 216L312 289L414 252Z" fill="#006a91" stroke="#715DF2"></path><path d="M307 841L370 917L410 810Z" fill="#008dac" stroke="#715DF2"></path><path d="M444 914L384 988L507 988Z" fill="#009fb8" stroke="#715DF2"></path><path d="M507 988L456 1080L564 1021Z" fill="#006a91" stroke="#715DF2"></path><path d="M1462 1080L1528 1080L1538 1017Z" fill="#008dac" stroke="#715DF2"></path><path d="M1724 438L1748 367L1625 366Z" fill="#006a91" stroke="#715DF2"></path><path d="M1796 323L1748 367L1845 484Z" fill="#008dac" stroke="#715DF2"></path><path d="M1724 438L1709 506L1845 484Z" fill="#008dac" stroke="#715DF2"></path><path d="M302 691L307 841L410 810Z" fill="#00c2c2" stroke="#715DF2"></path><path d="M218 633L304 626L293 571Z" fill="#006a91" stroke="#715DF2"></path><path d="M1764 879L1737 796L1604 933Z" fill="#007b9f" stroke="#715DF2"></path><path d="M1708 728L1805 756L1716 640Z" fill="#00e4ba" stroke="#715DF2"></path><path d="M283 933L384 988L370 917Z" fill="#008dac" stroke="#715DF2"></path><path d="M370 917L384 988L444 914Z" fill="#006a91" stroke="#715DF2"></path><path d="M384 988L456 1080L507 988Z" fill="#007b9f" stroke="#715DF2"></path><path d="M366 80L310 200L350 216Z" fill="#00d3c0" stroke="#715DF2"></path><path d="M350 216L310 200L312 289Z" fill="#004972" stroke="#715DF2"></path><path d="M312 289L226 304L288 371Z" fill="#00d3c0" stroke="#715DF2"></path><path d="M366 80L508 153L482 78Z" fill="#003962" stroke="#715DF2"></path><path d="M563 0L445 0L482 78Z" fill="#009fb8" stroke="#715DF2"></path><path d="M1796 323L1760 303L1748 367Z" fill="#00e4ba" stroke="#715DF2"></path><path d="M1748 367L1760 303L1625 366Z" fill="#009fb8" stroke="#715DF2"></path><path d="M1665 201L1654 54L1533 152Z" fill="#008dac" stroke="#715DF2"></path><path d="M1760 303L1702 148L1665 201Z" fill="#007b9f" stroke="#715DF2"></path><path d="M414 0L366 80L482 78Z" fill="#00e4ba" stroke="#715DF2"></path><path d="M1528 1080L1601 1080L1538 1017Z" fill="#005982" stroke="#715DF2"></path><path d="M1854 821L1805 756L1737 796Z" fill="#007b9f" stroke="#715DF2"></path><path d="M157 570L293 571L281 441Z" fill="#006a91" stroke="#715DF2"></path><path d="M157 570L218 633L293 571Z" fill="#00e4ba" stroke="#715DF2"></path><path d="M179 415L281 441L288 371Z" fill="#00b1bf" stroke="#715DF2"></path><path d="M1702 148L1654 54L1665 201Z" fill="#00b1bf" stroke="#715DF2"></path><path d="M445 0L414 0L482 78Z" fill="#003962" stroke="#715DF2"></path><path d="M218 633L216 698L302 691Z" fill="#005982" stroke="#715DF2"></path><path d="M307 841L283 933L370 917Z" fill="#009fb8" stroke="#715DF2"></path><path d="M1834 613L1709 506L1716 640Z" fill="#006a91" stroke="#715DF2"></path><path d="M1847 176L1764 92L1702 148Z" fill="#008dac" stroke="#715DF2"></path><path d="M1702 148L1764 92L1654 54Z" fill="#005982" stroke="#715DF2"></path><path d="M1654 54L1621 0L1503 72Z" fill="#004972" stroke="#715DF2"></path><path d="M1764 879L1604 933L1623 964Z" fill="#008dac" stroke="#715DF2"></path><path d="M1737 796L1805 756L1708 728Z" fill="#004972" stroke="#715DF2"></path><path d="M161 179L226 304L310 200Z" fill="#009fb8" stroke="#715DF2"></path><path d="M310 200L226 304L312 289Z" fill="#005982" stroke="#715DF2"></path><path d="M103 649L132 753L216 698Z" fill="#005982" stroke="#715DF2"></path><path d="M301 64L310 200L366 80Z" fill="#004972" stroke="#715DF2"></path><path d="M1742 1027L1764 879L1623 964Z" fill="#006a91" stroke="#715DF2"></path><path d="M1805 756L1834 613L1716 640Z" fill="#00d3c0" stroke="#715DF2"></path><path d="M226 304L214 332L288 371Z" fill="#008dac" stroke="#715DF2"></path><path d="M208 825L283 933L307 841Z" fill="#005982" stroke="#715DF2"></path><path d="M384 988L365 1080L456 1080Z" fill="#003962" stroke="#715DF2"></path><path d="M1857 537L1845 484L1709 506Z" fill="#00c2c2" stroke="#715DF2"></path><path d="M297 1080L365 1080L384 988Z" fill="#00c2c2" stroke="#715DF2"></path><path d="M214 332L179 415L288 371Z" fill="#009fb8" stroke="#715DF2"></path><path d="M1920 573L1857 537L1834 613Z" fill="#00d3c0" stroke="#715DF2"></path><path d="M1834 613L1857 537L1709 506Z" fill="#00d3c0" stroke="#715DF2"></path><path d="M216 698L208 825L302 691Z" fill="#005982" stroke="#715DF2"></path><path d="M283 933L272 990L384 988Z" fill="#00e4ba" stroke="#715DF2"></path><path d="M132 753L208 825L216 698Z" fill="#005982" stroke="#715DF2"></path><path d="M179 415L157 570L281 441Z" fill="#006a91" stroke="#715DF2"></path><path d="M285 0L301 64L366 80Z" fill="#00c2c2" stroke="#715DF2"></path><path d="M107 254L123 377L214 332Z" fill="#004972" stroke="#715DF2"></path><path d="M214 332L123 377L179 415Z" fill="#003962" stroke="#715DF2"></path><path d="M186 928L272 990L283 933Z" fill="#008dac" stroke="#715DF2"></path><path d="M1847 176L1702 148L1760 303Z" fill="#00c2c2" stroke="#715DF2"></path><path d="M1654 54L1746 0L1621 0Z" fill="#00d3c0" stroke="#715DF2"></path><path d="M1849 258L1760 303L1796 323Z" fill="#007b9f" stroke="#715DF2"></path><path d="M1849 258L1796 323L1920 325Z" fill="#00b1bf" stroke="#715DF2"></path><path d="M1721 1080L1742 1027L1623 964Z" fill="#006a91" stroke="#715DF2"></path><path d="M1764 879L1854 821L1737 796Z" fill="#00c2c2" stroke="#715DF2"></path><path d="M1920 637L1920 573L1834 613Z" fill="#005982" stroke="#715DF2"></path><path d="M1920 416L1796 323L1845 484Z" fill="#005982" stroke="#715DF2"></path><path d="M1860 877L1854 821L1764 879Z" fill="#009fb8" stroke="#715DF2"></path><path d="M1601 1080L1721 1080L1623 964Z" fill="#005982" stroke="#715DF2"></path><path d="M1846 1000L1860 877L1764 879Z" fill="#00d3c0" stroke="#715DF2"></path><path d="M226 1021L297 1080L272 990Z" fill="#003962" stroke="#715DF2"></path><path d="M272 990L297 1080L384 988Z" fill="#003962" stroke="#715DF2"></path><path d="M301 64L215 124L310 200Z" fill="#00c2c2" stroke="#715DF2"></path><path d="M70 480L97 566L157 570Z" fill="#005982" stroke="#715DF2"></path><path d="M107 254L214 332L226 304Z" fill="#005982" stroke="#715DF2"></path><path d="M103 649L218 633L157 570Z" fill="#008dac" stroke="#715DF2"></path><path d="M103 649L216 698L218 633Z" fill="#005982" stroke="#715DF2"></path><path d="M208 825L186 928L283 933Z" fill="#006a91" stroke="#715DF2"></path><path d="M301 64L285 0L215 124Z" fill="#00d3c0" stroke="#715DF2"></path><path d="M414 0L285 0L366 80Z" fill="#003962" stroke="#715DF2"></path><path d="M1920 637L1834 613L1920 690Z" fill="#00c2c2" stroke="#715DF2"></path><path d="M1857 537L1920 416L1845 484Z" fill="#004972" stroke="#715DF2"></path><path d="M1920 265L1847 176L1849 258Z" fill="#007b9f" stroke="#715DF2"></path><path d="M1849 258L1847 176L1760 303Z" fill="#004972" stroke="#715DF2"></path><path d="M1786 0L1746 0L1764 92Z" fill="#00c2c2" stroke="#715DF2"></path><path d="M1764 92L1746 0L1654 54Z" fill="#003962" stroke="#715DF2"></path><path d="M1846 1000L1764 879L1742 1027Z" fill="#008dac" stroke="#715DF2"></path><path d="M1920 690L1834 613L1805 756Z" fill="#008dac" stroke="#715DF2"></path><path d="M1920 690L1805 756L1920 806Z" fill="#007b9f" stroke="#715DF2"></path><path d="M106 797L186 928L208 825Z" fill="#005982" stroke="#715DF2"></path><path d="M70 480L157 570L179 415Z" fill="#004972" stroke="#715DF2"></path><path d="M1920 573L1920 416L1857 537Z" fill="#003962" stroke="#715DF2"></path><path d="M97 566L103 649L157 570Z" fill="#005982" stroke="#715DF2"></path><path d="M1920 806L1805 756L1854 821Z" fill="#00d3c0" stroke="#715DF2"></path><path d="M186 928L226 1021L272 990Z" fill="#006a91" stroke="#715DF2"></path><path d="M61 66L161 179L215 124Z" fill="#00d3c0" stroke="#715DF2"></path><path d="M215 124L161 179L310 200Z" fill="#00d3c0" stroke="#715DF2"></path><path d="M1920 416L1920 325L1796 323Z" fill="#003962" stroke="#715DF2"></path><path d="M1847 176L1834 85L1764 92Z" fill="#003962" stroke="#715DF2"></path><path d="M1920 120L1834 85L1847 176Z" fill="#00c2c2" stroke="#715DF2"></path><path d="M0 716L132 753L103 649Z" fill="#006a91" stroke="#715DF2"></path><path d="M0 716L106 797L132 753Z" fill="#009fb8" stroke="#715DF2"></path><path d="M132 753L106 797L208 825Z" fill="#008dac" stroke="#715DF2"></path><path d="M97 1001L195 1080L226 1021Z" fill="#00b1bf" stroke="#715DF2"></path><path d="M1834 85L1786 0L1764 92Z" fill="#004972" stroke="#715DF2"></path><path d="M0 424L70 480L123 377Z" fill="#005982" stroke="#715DF2"></path><path d="M123 377L70 480L179 415Z" fill="#00d3c0" stroke="#715DF2"></path><path d="M97 566L0 566L103 649Z" fill="#00b1bf" stroke="#715DF2"></path><path d="M1920 917L1920 806L1860 877Z" fill="#003962" stroke="#715DF2"></path><path d="M1860 877L1920 806L1854 821Z" fill="#006a91" stroke="#715DF2"></path><path d="M1920 325L1920 265L1849 258Z" fill="#00c2c2" stroke="#715DF2"></path><path d="M1721 1080L1793 1080L1742 1027Z" fill="#008dac" stroke="#715DF2"></path><path d="M75 180L107 254L161 179Z" fill="#004972" stroke="#715DF2"></path><path d="M161 179L107 254L226 304Z" fill="#003962" stroke="#715DF2"></path><path d="M1793 1080L1846 1000L1742 1027Z" fill="#00d3c0" stroke="#715DF2"></path><path d="M97 1001L226 1021L186 928Z" fill="#00c2c2" stroke="#715DF2"></path><path d="M226 1021L195 1080L297 1080Z" fill="#004972" stroke="#715DF2"></path><path d="M1846 1000L1920 917L1860 877Z" fill="#00c2c2" stroke="#715DF2"></path><path d="M1920 989L1920 917L1846 1000Z" fill="#009fb8" stroke="#715DF2"></path><path d="M1920 265L1920 164L1847 176Z" fill="#007b9f" stroke="#715DF2"></path><path d="M1834 85L1920 0L1786 0Z" fill="#005982" stroke="#715DF2"></path><path d="M1920 164L1920 120L1847 176Z" fill="#008dac" stroke="#715DF2"></path><path d="M285 0L166 0L215 124Z" fill="#00b1bf" stroke="#715DF2"></path><path d="M61 66L75 180L161 179Z" fill="#004972" stroke="#715DF2"></path><path d="M0 356L0 424L123 377Z" fill="#007b9f" stroke="#715DF2"></path><path d="M1920 1080L1920 989L1846 1000Z" fill="#009fb8" stroke="#715DF2"></path><path d="M70 480L0 566L97 566Z" fill="#00c2c2" stroke="#715DF2"></path><path d="M106 797L73 936L186 928Z" fill="#00c2c2" stroke="#715DF2"></path><path d="M0 424L0 566L70 480Z" fill="#00c2c2" stroke="#715DF2"></path><path d="M0 356L123 377L0 288Z" fill="#009fb8" stroke="#715DF2"></path><path d="M0 842L73 936L106 797Z" fill="#00d3c0" stroke="#715DF2"></path><path d="M0 566L0 667L103 649Z" fill="#007b9f" stroke="#715DF2"></path><path d="M73 936L97 1001L186 928Z" fill="#00e4ba" stroke="#715DF2"></path><path d="M0 667L0 716L103 649Z" fill="#005982" stroke="#715DF2"></path><path d="M0 288L123 377L107 254Z" fill="#006a91" stroke="#715DF2"></path><path d="M75 180L0 288L107 254Z" fill="#004972" stroke="#715DF2"></path><path d="M0 166L0 288L75 180Z" fill="#006a91" stroke="#715DF2"></path><path d="M166 0L61 66L215 124Z" fill="#009fb8" stroke="#715DF2"></path><path d="M0 967L97 1001L73 936Z" fill="#008dac" stroke="#715DF2"></path><path d="M0 1080L112 1080L97 1001Z" fill="#00c2c2" stroke="#715DF2"></path><path d="M97 1001L112 1080L195 1080Z" fill="#008dac" stroke="#715DF2"></path><path d="M1793 1080L1920 1080L1846 1000Z" fill="#007b9f" stroke="#715DF2"></path><path d="M1920 120L1920 0L1834 85Z" fill="#003962" stroke="#715DF2"></path><path d="M0 716L0 842L106 797Z" fill="#00e4ba" stroke="#715DF2"></path><path d="M115 0L61 66L166 0Z" fill="#00c2c2" stroke="#715DF2"></path><path d="M0 842L0 909L73 936Z" fill="#00c2c2" stroke="#715DF2"></path><path d="M61 66L0 166L75 180Z" fill="#004972" stroke="#715DF2"></path><path d="M0 909L0 967L73 936Z" fill="#009fb8" stroke="#715DF2"></path><path d="M0 0L0 82L61 66Z" fill="#004972" stroke="#715DF2"></path><path d="M61 66L0 82L0 166Z" fill="#005982" stroke="#715DF2"></path><path d="M0 967L0 1080L97 1001Z" fill="#00c2c2" stroke="#715DF2"></path><path d="M115 0L0 0L61 66Z" fill="#003962" stroke="#715DF2"></path></g></svg>